<svg width="153" height="59" fill="none" xmlns="http://www.w3.org/2000/svg"><g clip-path="url(#clip0)"><path d="M71.102 22.215c.178.32.21.598.097.837-.097.224-.34.335-.727.335h-2.619c-.662 0-1.139-.064-1.43-.191-.29-.128-.533-.399-.727-.813l-2.11-4.282c-.21-.43-.428-.733-.654-.909-.226-.191-.558-.287-.994-.287h-.436v5.478c0 .367-.073.63-.218.79-.146.143-.413.214-.8.214h-2.74c-.388 0-.663-.071-.824-.215-.146-.16-.218-.422-.218-.79V7.41c0-.366.072-.621.218-.765.161-.16.436-.24.824-.24h2.74c.387 0 .654.08.8.24.145.144.218.399.218.765v5.31h.533l3.491-5.43c.243-.382.469-.621.679-.717.226-.111.646-.167 1.26-.167h2.788c.372 0 .606.096.704.287.113.191.072.446-.122.765l-4.412 6.937c.566.399 1.059 1.012 1.479 1.842l3.2 5.98zm15.764-15.81c.63 0 .8.335.51 1.004l-6.4 15.093c-.162.367-.348.606-.558.718-.21.111-.582.167-1.115.167h-3.08c-.646 0-.816-.335-.508-1.004l1.818-4.019-5.14-10.955c-.323-.67-.129-1.004.582-1.004h2.86c.615 0 1.035.048 1.261.143.243.096.445.343.606.742l2.352 5.31 2.23-5.31c.146-.399.324-.646.534-.742.21-.095.598-.143 1.163-.143h2.885zm16.048 0c.371 0 .63.08.775.24.162.143.243.398.243.764v14.974c0 .367-.081.63-.243.79-.145.143-.404.214-.775.214h-2.764c-.372 0-.639-.071-.8-.215-.146-.16-.218-.422-.218-.79v-11.79H94.55v11.792c0 .367-.073.63-.218.79-.146.143-.413.214-.8.214h-2.74c-.388 0-.663-.071-.824-.215-.146-.16-.218-.422-.218-.79V7.41c0-.366.072-.621.218-.765.161-.16.436-.24.824-.24h12.122zm18.026-.024c.388 0 .655.08.8.24.162.143.243.406.243.788v14.974c0 .367-.081.63-.243.79-.145.143-.412.214-.8.214h-2.715c-.388 0-.663-.071-.824-.215-.146-.16-.219-.43-.219-.813v-5.071c.017-.303.041-.606.073-.909l.073-.694a7.29 7.29 0 01.121-.741c.081-.335.137-.574.17-.718.048-.143.129-.438.242-.885.113-.446.194-.773.243-.98h-.194c-.453 1.227-.816 2.136-1.091 2.726-.259.59-.655 1.324-1.188 2.201l-3.346 5.621c-.177.319-.509.478-.994.478h-2.933c-.388 0-.663-.071-.824-.215-.146-.16-.218-.422-.218-.79V7.41c0-.366.072-.621.218-.765.161-.16.436-.24.824-.24h2.739c.388 0 .655.08.8.24.146.144.219.399.219.765v4.09c0 1.292-.057 2.28-.17 2.967-.097.685-.339 1.666-.727 2.942h.169c.873-2.185 1.649-3.843 2.328-4.976l3.297-5.573c.21-.319.549-.478 1.018-.478h2.909zM64.435 35.639c1.907 0 3.427.526 4.558 1.579 1.131 1.052 1.697 2.52 1.697 4.4 0 1.866-.558 3.318-1.673 4.354-1.115 1.037-2.626 1.555-4.533 1.555h-2.982v4.09c0 .367-.073.63-.218.79-.146.143-.413.215-.8.215h-2.74c-.388 0-.663-.072-.824-.216-.146-.16-.218-.422-.218-.789V36.644c0-.367.072-.622.218-.766.161-.16.436-.239.824-.239h6.691zm-.533 7.702c.566 0 1.01-.16 1.333-.478.323-.32.485-.742.485-1.268s-.162-.949-.485-1.268c-.323-.335-.767-.502-1.333-.502h-2.4v3.516h2.4zm23.297 8.3c.242.654.008.98-.703.98h-2.618c-.615 0-1.051-.071-1.31-.215-.242-.143-.412-.406-.509-.789l-.557-1.722h-5.237l-.557 1.722c-.13.383-.316.646-.558.79-.226.143-.63.215-1.212.215h-2.546c-.678 0-.897-.327-.654-.981l5.576-15.165c.113-.335.258-.558.436-.67.178-.111.453-.167.824-.167h2.764c.356 0 .622.056.8.168.194.111.347.319.46.621l5.6 15.213zm-7.685-8.3a13.017 13.017 0 01-.364-1.555c-.08-.558-.13-.996-.145-1.315l-.025-.479h-.242a10.883 10.883 0 01-.46 3.325l-.898 2.822h3.03l-.896-2.798zm21.709-7.726c.372 0 .63.08.776.24.161.143.242.406.242.789v1.865c0 .383-.081.646-.242.79-.146.143-.404.215-.776.215H94.29v2.129h3.466c1.713 0 3.079.494 4.097 1.483 1.035.973 1.552 2.312 1.552 4.018 0 1.675-.517 3.006-1.552 3.995-1.018.988-2.383 1.483-4.097 1.483h-7.248c-.372 0-.639-.072-.8-.216-.146-.143-.219-.39-.219-.741V36.644c0-.383.073-.646.219-.79.161-.16.436-.239.824-.239h10.691zM98.508 47.12c0-1.052-.59-1.578-1.77-1.578H94.29v3.18h2.448c1.18 0 1.77-.533 1.77-1.602zm7.07-5.142c0-2.09.646-3.724 1.939-4.904 1.309-1.196 3.152-1.794 5.527-1.794 2.36 0 4.186.598 5.479 1.794 1.309 1.18 1.964 2.815 1.964 4.904v4.305c0 2.089-.655 3.731-1.964 4.927-1.293 1.18-3.119 1.77-5.479 1.77-2.375 0-4.218-.59-5.527-1.77-1.293-1.196-1.939-2.838-1.939-4.927v-4.305zm10.109-.216c0-.75-.234-1.315-.703-1.698-.453-.398-1.099-.598-1.94-.598-.856 0-1.519.2-1.987.598-.453.383-.679.949-.679 1.698v4.736c0 .75.226 1.324.679 1.723.468.382 1.131.574 1.987.574.841 0 1.487-.192 1.94-.575.469-.398.703-.972.703-1.722v-4.736zm19.681-6.123c.388 0 .655.08.8.24.162.143.243.398.243.765v2.152c0 .383-.081.654-.243.814-.145.143-.412.215-.8.215h-3.588v11.792c0 .367-.08.63-.242.79-.145.143-.412.215-.8.215h-2.739c-.388 0-.655-.072-.8-.216-.146-.16-.219-.422-.219-.789V39.825h-3.612c-.388 0-.654-.072-.8-.215-.145-.16-.218-.43-.218-.814v-2.152c0-.367.073-.622.218-.766.146-.16.412-.239.8-.239h12zm16.789 0c.631 0 .801.335.51 1.005l-6.401 15.093c-.161.366-.347.605-.557.717-.21.112-.582.168-1.115.168h-3.079c-.647 0-.816-.335-.509-1.005l1.818-4.018-5.14-10.955c-.323-.67-.129-1.005.582-1.005h2.861c.614 0 1.034.048 1.261.144.242.095.444.343.606.741l2.351 5.31 2.231-5.31c.145-.398.323-.646.533-.741.21-.096.598-.144 1.164-.144h2.884z" fill="#3C4852"/><path d="M14.362 50.139h14.914c-4.082 4.45-7.461 7.085-7.461 7.085s-3.371-2.634-7.453-7.085zm-.431-37.604a5.821 5.821 0 00-2.955.81 5.533 5.533 0 00-2.08 2.179 5.279 5.279 0 00.48 5.678 5.632 5.632 0 002.42 1.825 5.858 5.858 0 003.054.337 5.757 5.757 0 002.786-1.249 5.44 5.44 0 001.697-2.467c-.002-.183-.102-4.665-5.401-7.113zm.023 7.753c-.474 0-.938-.136-1.333-.39a2.332 2.332 0 01-.883-1.037 2.232 2.232 0 01-.137-1.335c.092-.448.321-.86.657-1.183a2.43 2.43 0 011.228-.633 2.485 2.485 0 011.386.132c.439.175.813.471 1.077.851a2.248 2.248 0 01-.298 2.918c-.45.433-1.06.677-1.697.677zm10.35-.676a5.437 5.437 0 001.683 2.483 5.745 5.745 0 002.782 1.265 5.847 5.847 0 003.058-.326 5.629 5.629 0 002.427-1.822 5.284 5.284 0 00.488-5.688 5.531 5.531 0 00-2.083-2.183 5.811 5.811 0 00-2.96-.806c-5.072 2.345-5.38 6.558-5.395 7.077zm5.386-3.943c.474 0 .938.135 1.332.389.395.254.702.615.884 1.037.181.422.23.887.137 1.335-.093.449-.321.86-.656 1.184a2.425 2.425 0 01-1.228.632 2.48 2.48 0 01-1.385-.131 2.38 2.38 0 01-1.076-.852 2.252 2.252 0 01-.403-1.285c0-.611.253-1.198.701-1.63a2.443 2.443 0 011.691-.679h.003z" fill="#FFCC80"/><path d="M43.637 21.73c0 9.484-5.13 18.167-10.416 24.594h-22.8C5.131 39.897 0 31.214 0 21.731a20.83 20.83 0 012.413-9.741 17.43 17.43 0 004.143 2.096 11.012 11.012 0 00-1.06 3.48c-1.17 9.541 6.597 10.575 16.33 10.575 9.735 0 17.498-1.034 16.328-10.575a10.929 10.929 0 00-1.065-3.487 17.694 17.694 0 004.141-2.086 20.808 20.808 0 012.407 9.738z" fill="#FFCC80"/><path d="M2.217 41.964h39.205c.588 0 1.151.23 1.567.638a2.161 2.161 0 01.48 2.376 2.179 2.179 0 01-.48.707 2.245 2.245 0 01-1.567.639H2.217a2.249 2.249 0 01-1.568-.639 2.15 2.15 0 010-3.084 2.217 2.217 0 011.568-.637zm41.42-40.873c-1.609 1.56-3.21 2.11-4.945 2.11C34.515 3.202 29.557 0 21.822 0 14.084 0 9.126 3.202 4.944 3.202c-1.735 0-3.334-.55-4.945-2.11 0 5.42 3.533 9.435 10.962 10.814h-.02c1.054.237 2.079.588 3.056 1.048 5.3 2.527 5.4 7.154 5.402 7.342v.011l2.407 3.673 2.425-3.659v-.057c.018-.536.324-4.885 5.401-7.305.977-.459 2-.81 3.053-1.046h-.013C40.106 10.53 43.637 6.516 43.637 1.09z" fill="#3C4852"/></g><defs><clipPath id="clip0"><path fill="#fff" d="M0 0h153v59H0z"/></clipPath></defs></svg>