<svg width="90" height="124" fill="none" xmlns="http://www.w3.org/2000/svg"><path d="M38.182 27.841h2.538c.405.007.791.172 1.076.46a1.535 1.535 0 010 2.158 1.55 1.55 0 01-1.076.46h-2.627a1.461 1.461 0 01-1.344-.888 1.465 1.465 0 00-2.696.02 1.45 1.45 0 00.009 1.113 4.354 4.354 0 001.57 1.907 4.38 4.38 0 002.358.75v.533c0 .386.154.755.427 1.028a1.462 1.462 0 002.491-1.028v-.54a4.468 4.468 0 003.05-1.405 4.432 4.432 0 00-.133-6.2 4.47 4.47 0 00-3.107-1.275h-2.537a1.55 1.55 0 01-1.45-.944 1.532 1.532 0 01.34-1.691 1.546 1.546 0 011.11-.442h2.626a1.465 1.465 0 011.376.967 1.451 1.451 0 00.747.826 1.464 1.464 0 001.946-.686 1.45 1.45 0 00.058-1.111 4.366 4.366 0 00-1.56-2.071 4.395 4.395 0 00-2.462-.827v-.533a1.45 1.45 0 00-.427-1.027 1.462 1.462 0 00-2.491 1.027v.54a4.468 4.468 0 00-3.05 1.406 4.432 4.432 0 00.133 6.2 4.47 4.47 0 003.107 1.274h-.002zm-8.161 17.536h18.864c.387 0 .758-.153 1.032-.426a1.45 1.45 0 00-1.032-2.48H30.022c-.387 0-.758.153-1.032.425a1.45 1.45 0 001.032 2.48zm27.518 7.036H29.623a1.46 1.46 0 00-1.032.426 1.45 1.45 0 001.032 2.48h27.916c.387 0 .758-.153 1.032-.425a1.45 1.45 0 00-1.032-2.48zm0 8.824h-36.2c-.387 0-.759.153-1.032.425a1.45 1.45 0 000 2.055 1.46 1.46 0 001.031.426h36.2c.388 0 .759-.153 1.032-.426a1.45 1.45 0 000-2.055 1.462 1.462 0 00-1.031-.425zm0 8.823h-36.2a1.46 1.46 0 00-1.032.426 1.45 1.45 0 001.031 2.48h36.2c.388 0 .759-.153 1.032-.425a1.45 1.45 0 000-2.055 1.462 1.462 0 00-1.031-.426zM21.338 45.377a1.46 1.46 0 001.032-.426 1.45 1.45 0 00-1.032-2.48h-.774c-.387 0-.759.153-1.032.425a1.45 1.45 0 001.032 2.48h.774zm36.202 0h.774c.387 0 .758-.153 1.032-.426a1.45 1.45 0 00-1.032-2.48h-.775c-.387 0-.758.153-1.032.425a1.45 1.45 0 001.032 2.48z" fill="#FFCC80"/><path d="M1.457 102.416h50.111a9.02 9.02 0 00.781 1.478c.35.529.755 1.02 1.21 1.463-3.931 5.724-6.212 12.492-6.311 12.792a1.448 1.448 0 00.31 1.44 1.462 1.462 0 001.413.432 30.925 30.925 0 014.317-.739l2.122 3.947a1.454 1.454 0 001.286.768c.042 0 .083 0 .127-.006a1.463 1.463 0 001.26-.994 49.728 49.728 0 015.667-11.8 8.847 8.847 0 009.671 0A49.664 49.664 0 0179.091 123a1.463 1.463 0 002.672.233l2.123-3.948c1.454.145 2.897.391 4.316.739a1.464 1.464 0 001.414-.431 1.453 1.453 0 00.31-1.44c-.1-.301-2.376-7.059-6.304-12.783a8.822 8.822 0 00.496-12.027 8.816 8.816 0 001.276-9.636 8.861 8.861 0 00-3.438-3.741 8.91 8.91 0 00-4.937-1.246V1.453a1.45 1.45 0 00-.427-1.027A1.462 1.462 0 0075.561 0H22.138a1.44 1.44 0 00-.25.024c-.013.002-.026.007-.04.01a1.434 1.434 0 00-.2.058l-.07.029a1.407 1.407 0 00-.163.083c-.021.012-.042.023-.062.036a1.412 1.412 0 00-.2.156L.454 19.91l-.015.017c-.017.016-.032.035-.048.052-.04.042-.077.087-.112.133-.008.01-.017.02-.024.031-.008.011-.02.034-.03.051a1.38 1.38 0 00-.084.156c-.007.015-.017.028-.023.042-.006.013-.007.02-.01.03a1.484 1.484 0 00-.075.238c-.004.017-.005.034-.008.05-.012.071-.02.144-.021.216 0 .013-.004.025-.004.038v79.997a1.452 1.452 0 001.457 1.455zM65.83 19.022a9.351 9.351 0 01-5.123-2.606 9.288 9.288 0 01-2.617-5.103h7.74v7.71zm-10.683-7.71a12.185 12.185 0 003.499 7.156 12.272 12.272 0 007.184 3.485V74.41a8.909 8.909 0 00-5.107 4.297 8.918 8.918 0 00-4.505.71 8.88 8.88 0 00-3.559 2.842 8.831 8.831 0 00-1.023 8.723H21.407a12.185 12.185 0 00-3.499-7.155 12.273 12.273 0 00-7.184-3.485v-52.5h11.432c.387 0 .758-.154 1.032-.426a1.45 1.45 0 00.427-1.028V11.312h31.532zM10.724 83.273a9.351 9.351 0 015.123 2.607 9.288 9.288 0 012.617 5.102h-7.74v-7.709zM20.697 4.83v14.684H5.121l.85-.802L20.698 4.829zM2.916 99.51V27.841h4.89v64.595a1.458 1.458 0 001.459 1.453h43.289a8.757 8.757 0 00-1.652 5.62H2.916zm79.467-15.213a5.894 5.894 0 01-1.27 7.903 1.455 1.455 0 00-.55 1.133 1.448 1.448 0 00.544 1.136 5.936 5.936 0 012.082 3.353 5.917 5.917 0 01-.484 3.913 5.956 5.956 0 01-2.838 2.749 5.984 5.984 0 01-3.94.373 1.463 1.463 0 00-1.725.922 5.942 5.942 0 01-2.189 2.866 5.972 5.972 0 01-3.449 1.079 5.974 5.974 0 01-3.44-1.104 5.94 5.94 0 01-2.168-2.882 1.452 1.452 0 00-.684-.8 1.47 1.47 0 00-1.046-.132 5.978 5.978 0 01-3.952-.371 5.951 5.951 0 01-2.843-2.759 5.918 5.918 0 01-.475-3.925 5.937 5.937 0 012.104-3.352 1.454 1.454 0 00.408-1.763 1.455 1.455 0 00-.402-.506 5.936 5.936 0 01-2.083-3.353 5.918 5.918 0 01.484-3.914 5.952 5.952 0 012.839-2.749 5.985 5.985 0 013.941-.373 1.465 1.465 0 001.724-.922 5.94 5.94 0 012.189-2.866 5.979 5.979 0 016.89.026 5.939 5.939 0 012.167 2.882 1.464 1.464 0 001.73.931 5.997 5.997 0 013.619.232 5.97 5.97 0 012.817 2.273zm-8.282-8.41a8.886 8.886 0 00-5.353-1.916V9.86a1.45 1.45 0 00-.428-1.028 1.462 1.462 0 00-1.031-.426H23.615v-5.5h50.486v72.98z" fill="#3C4852"/><path d="M68.587 83.865a9.498 9.498 0 00-5.262 1.59 9.441 9.441 0 00-3.489 4.234 9.398 9.398 0 00-.539 5.45 9.423 9.423 0 002.592 4.83 9.486 9.486 0 004.85 2.582 9.506 9.506 0 005.472-.537 9.463 9.463 0 004.25-3.474 9.406 9.406 0 001.597-5.241 9.425 9.425 0 00-2.777-6.667 9.501 9.501 0 00-6.694-2.767zm0 15.96a6.572 6.572 0 01-3.641-1.099 6.532 6.532 0 01-2.414-2.93 6.503 6.503 0 011.42-7.112 6.577 6.577 0 017.142-1.415 6.547 6.547 0 012.941 2.404 6.51 6.51 0 011.105 3.626 6.522 6.522 0 01-1.922 4.613 6.574 6.574 0 01-4.631 1.914z" fill="#FFCC80"/></svg>