<svg width="96" height="97" fill="none" xmlns="http://www.w3.org/2000/svg"><path d="M92.067 6.269H81.678a1.954 1.954 0 00-1.85 1.304 1.97 1.97 0 00-.11.793c.038.51.268.988.644 1.335a2 2 0 001.382.528h.83a1.098 1.098 0 011.069.933 1.106 1.106 0 01-.734 1.215 4.27 4.27 0 01-3.464-.526 4.291 4.291 0 01-1.914-2.944 4.307 4.307 0 01.918-3.392 4.285 4.285 0 013.134-1.57 2.022 2.022 0 002.047-1.753 1.978 1.978 0 00-1.15-2.02 1.962 1.962 0 00-.8-.172 8.183 8.183 0 00-4.184 1.151 8.216 8.216 0 00-3.013 3.13 3.896 3.896 0 01-3.416 1.988H59.294c-.508-.008-1 .178-1.377.52a2.018 2.018 0 00-.655 1.321 1.978 1.978 0 001.179 1.956c.249.108.517.164.788.163h.896a1.098 1.098 0 011.015.929 1.106 1.106 0 01-.68 1.197 4.2 4.2 0 01-1.58.16 4.279 4.279 0 01-2.807-1.439 4.304 4.304 0 01.19-5.876 4.277 4.277 0 012.893-1.255 2.021 2.021 0 002.032-1.753 1.978 1.978 0 00-1.15-2.02A1.962 1.962 0 0059.236 0c-1.473 0-2.92.398-4.186 1.151a8.23 8.23 0 00-3.018 3.13 3.88 3.88 0 01-3.41 1.988H36.845c-.508-.008-1 .178-1.377.52a2.019 2.019 0 00-.655 1.321 1.971 1.971 0 001.172 1.956c.249.108.517.164.787.163h.896a1.098 1.098 0 011.07.933 1.106 1.106 0 01-.735 1.215 4.27 4.27 0 01-4.745-1.8 4.304 4.304 0 011.706-6.194 4.273 4.273 0 011.743-.438c.491.005.968-.17 1.34-.494.37-.323.612-.77.678-1.26a1.98 1.98 0 00-.488-1.533A1.967 1.967 0 0036.77 0a8.198 8.198 0 00-4.182 1.153 8.23 8.23 0 00-3.015 3.129 3.888 3.888 0 01-3.416 1.987h-11.77a2 2 0 00-1.36.528 1.972 1.972 0 00.515 3.263c.245.11.51.167.779.169h.896a1.091 1.091 0 011.103.93 1.099 1.099 0 01-.775 1.218 4.2 4.2 0 01-1.58.16 4.274 4.274 0 01-2.988-1.358 4.306 4.306 0 01.2-6.076 4.278 4.278 0 013.071-1.158c.493.005.97-.17 1.343-.493.372-.323.615-.77.682-1.26a1.978 1.978 0 00-1.15-2.02A1.962 1.962 0 0014.321 0a8.215 8.215 0 00-5.064 1.757A8.259 8.259 0 006.345 6.27H3.934a3.916 3.916 0 00-2.79 1.159A3.94 3.94 0 000 10.229v82.826c0 1.046.414 2.05 1.152 2.79A3.928 3.928 0 003.934 97h88.14a3.927 3.927 0 002.781-1.156 3.952 3.952 0 001.152-2.79V10.23a3.949 3.949 0 00-1.147-2.804 3.925 3.925 0 00-2.793-1.156zm0 74.956c0 3.138-1.243 6.147-3.455 8.365a11.775 11.775 0 01-8.339 3.465H15.727a11.775 11.775 0 01-8.34-3.465 11.847 11.847 0 01-3.453-8.365V37.993a11.847 11.847 0 013.461-8.35 11.775 11.775 0 018.332-3.457h64.546c3.124 0 6.12 1.244 8.332 3.457a11.847 11.847 0 013.462 8.35v43.232zM81.46 22.241H14.569a10.57 10.57 0 01-7.52-3.104 10.632 10.632 0 01-3.115-7.534 1.398 1.398 0 011.135-1.37 1.388 1.388 0 011.553.865 8.232 8.232 0 002.764 3.726 8.193 8.193 0 0012.14-2.63 3.874 3.874 0 013.408-1.965h1.224a3.874 3.874 0 013.416 1.987 8.223 8.223 0 003.016 3.13 8.19 8.19 0 008.37 0 8.224 8.224 0 003.015-3.13 3.88 3.88 0 013.41-1.987h1.23a3.865 3.865 0 013.41 1.987 8.223 8.223 0 003.015 3.13 8.19 8.19 0 008.37 0 8.222 8.222 0 003.016-3.13 3.874 3.874 0 013.416-1.987h1.224a3.882 3.882 0 013.416 1.987 8.214 8.214 0 003.275 3.284 8.181 8.181 0 008.86-.652 8.225 8.225 0 002.762-3.728 1.394 1.394 0 011.552-.865 1.39 1.39 0 011.136 1.37 10.647 10.647 0 01-3.112 7.51 10.582 10.582 0 01-7.494 3.106z" fill="#3C4852"/><path d="M81.009 33.34H14.99a3.92 3.92 0 00-2.77 1.147 3.944 3.944 0 00-1.156 2.776v44.671a3.95 3.95 0 001.147 2.79 3.928 3.928 0 002.78 1.156h66.017a3.917 3.917 0 002.779-1.156 3.94 3.94 0 001.147-2.79V37.263a3.944 3.944 0 00-1.155-2.776 3.92 3.92 0 00-2.771-1.148zM28.562 78.017a3.944 3.944 0 01-1.15 2.785 3.92 3.92 0 01-2.776 1.153h-5.697a3.917 3.917 0 01-2.78-1.15 3.94 3.94 0 01-1.153-2.788v-4.384a3.95 3.95 0 011.152-2.787 3.927 3.927 0 012.781-1.151h5.682a3.92 3.92 0 012.776 1.153 3.944 3.944 0 011.15 2.785l.015 4.384zm0-16.206a3.95 3.95 0 01-1.153 2.795 3.926 3.926 0 01-2.788 1.15H18.94a3.915 3.915 0 01-2.78-1.15 3.94 3.94 0 01-1.153-2.787v-4.384a3.949 3.949 0 011.15-2.792 3.928 3.928 0 012.783-1.154h5.682a3.92 3.92 0 012.776 1.154 3.945 3.945 0 011.15 2.784l.015 4.384zm0-16.205a3.944 3.944 0 01-1.15 2.784 3.92 3.92 0 01-2.776 1.154h-5.697a3.915 3.915 0 01-2.78-1.151 3.94 3.94 0 01-1.153-2.787v-4.384a3.948 3.948 0 011.145-2.802 3.926 3.926 0 012.788-1.158h5.682a3.92 3.92 0 012.776 1.153 3.944 3.944 0 011.15 2.785l.015 4.406zm17.482 32.41a3.95 3.95 0 01-1.152 2.788 3.926 3.926 0 01-2.781 1.151h-5.69a3.917 3.917 0 01-2.78-1.15 3.939 3.939 0 01-1.153-2.788v-4.384a3.948 3.948 0 011.153-2.787 3.925 3.925 0 012.78-1.151h5.682a3.915 3.915 0 012.781 1.15 3.939 3.939 0 011.153 2.788l.007 4.384zm0-16.205a3.948 3.948 0 01-1.152 2.795 3.926 3.926 0 01-2.789 1.15h-5.681a3.915 3.915 0 01-2.781-1.15 3.939 3.939 0 01-1.153-2.787v-4.384a3.949 3.949 0 011.15-2.792 3.926 3.926 0 012.784-1.154h5.681a3.917 3.917 0 012.781 1.151 3.939 3.939 0 011.153 2.787l.007 4.384zm0-16.205a3.95 3.95 0 01-1.152 2.787 3.925 3.925 0 01-2.781 1.15h-5.69a3.915 3.915 0 01-2.78-1.15 3.939 3.939 0 01-1.153-2.787v-4.384a3.948 3.948 0 011.145-2.802 3.926 3.926 0 012.789-1.158h5.681a3.917 3.917 0 012.781 1.15 3.939 3.939 0 011.153 2.788l.007 4.406zm17.483 32.41a3.948 3.948 0 01-1.153 2.788 3.925 3.925 0 01-2.78 1.151h-5.69a3.917 3.917 0 01-2.781-1.15 3.94 3.94 0 01-1.152-2.788v-4.384a3.95 3.95 0 011.152-2.787 3.926 3.926 0 012.781-1.151h5.682a3.915 3.915 0 012.78 1.15 3.938 3.938 0 011.153 2.788l.008 4.384zm0-16.205a3.948 3.948 0 01-1.153 2.795 3.927 3.927 0 01-2.788 1.15h-5.682a3.915 3.915 0 01-2.781-1.15 3.94 3.94 0 01-1.152-2.787v-4.384a3.949 3.949 0 011.15-2.792 3.928 3.928 0 012.783-1.154h5.682a3.916 3.916 0 012.78 1.151 3.939 3.939 0 011.153 2.787l.008 4.384zm0-16.205a3.948 3.948 0 01-1.153 2.787 3.923 3.923 0 01-2.78 1.15h-5.69a3.915 3.915 0 01-2.781-1.15 3.94 3.94 0 01-1.152-2.787v-4.384a3.95 3.95 0 011.144-2.802 3.924 3.924 0 012.789-1.158h5.682a3.917 3.917 0 012.78 1.15 3.938 3.938 0 011.153 2.788l.008 4.406zm17.482 32.41a3.948 3.948 0 01-1.153 2.788 3.925 3.925 0 01-2.78 1.151h-5.69a3.92 3.92 0 01-2.776-1.153 3.944 3.944 0 01-1.15-2.785v-4.384c0-1.044.414-2.046 1.15-2.785a3.92 3.92 0 012.776-1.153h5.697a3.914 3.914 0 012.78 1.15 3.94 3.94 0 011.153 2.788l-.007 4.384zm0-16.205a3.947 3.947 0 01-1.153 2.788 3.925 3.925 0 01-2.78 1.15h-5.69a3.917 3.917 0 01-2.78-1.15 3.939 3.939 0 01-1.153-2.788v-4.384a3.948 3.948 0 011.152-2.787 3.926 3.926 0 012.781-1.15h5.697a3.916 3.916 0 012.78 1.15 3.94 3.94 0 011.153 2.787l-.007 4.384zm0-16.205a3.948 3.948 0 01-1.153 2.787 3.923 3.923 0 01-2.78 1.15h-5.69a3.92 3.92 0 01-2.776-1.153 3.944 3.944 0 01-1.15-2.784v-4.384a3.949 3.949 0 011.142-2.8 3.926 3.926 0 012.784-1.16h5.697a3.916 3.916 0 012.78 1.15 3.94 3.94 0 011.153 2.788l-.007 4.406z" fill="#FFCC80"/></svg>