<svg width="123" height="115" fill="none" xmlns="http://www.w3.org/2000/svg"><path d="M58.132 113.994a53.369 53.369 0 008.271-4.307L76.98 107.9l8.65-1.537a4.934 4.934 0 003.158-2.018 4.9 4.9 0 00.818-3.65l-12.51-71.192c-.14-.796-.21-1.602-.208-2.41V11.538a4.774 4.774 0 00-1.213-3.242 4.553 4.553 0 00-2.597-1.417L71.88 2.346C71.263.23 69.428-.227 67.15.09L4.427 7.556A4.635 4.635 0 001.29 8.97 4.605 4.605 0 000 12.154v98.232a4.594 4.594 0 001.352 3.25 4.62 4.62 0 003.261 1.348l48.52-.022a13.22 13.22 0 005-.968zm-.788-2.981a9.528 9.528 0 001.008-4.567c-.105-2-.773-3.93-1.926-5.569a81.58 81.58 0 0116.679-.446c-4.575 5.437-11.467 8.852-15.761 10.582zm-54.69-.612V12.169a1.954 1.954 0 01.561-1.382c.363-.369.857-.58 1.375-.587l67.68-.755a1.924 1.924 0 011.4.563 1.954 1.954 0 01.58 1.39v86.475a82.924 82.924 0 00-20.572.714 1.333 1.333 0 00-1.064.93 1.323 1.323 0 00.378 1.36c.027.022 2.608 2.395 2.71 5.667.061 1.965-.758 3.91-2.483 5.796H4.613a1.966 1.966 0 01-1.38-.568 1.954 1.954 0 01-.58-1.371z" fill="#3C4852"/><path d="M102.812 82.119c2.535-.261 4.279-2.694 3.919-5.21l-8.915-62.25a13.057 13.057 0 00-2.453-5.943l-2.335-3.132a1.33 1.33 0 00-1.896-.238 1.327 1.327 0 00-.412.567L89.359 9.57a13.052 13.052 0 00-.69 6.389l8.92 62.25c.174 1.22 1.66 4.272 5.223 3.91zm-10.967-71.63l.512-1.372.89 1.175a10.447 10.447 0 011.957 4.738l8.191 57.19a11.596 11.596 0 01-3.896.529L91.31 15.585a10.467 10.467 0 01.534-5.097zm25.772 1.801h-3.252a5.4 5.4 0 00-3.805 1.575 5.364 5.364 0 00-1.577 3.794v3.499a.097.097 0 000 .041v14.429a1.313 1.313 0 00.818 1.223c.161.066.334.1.508.1h11.372a1.329 1.329 0 001.327-1.323V17.659a5.367 5.367 0 00-1.58-3.796 5.401 5.401 0 00-3.811-1.573zm2.73 22.012h-8.719V22.809a23.228 23.228 0 008.719 0v11.493zM66.96 32.87a1.352 1.352 0 001.25-.828 1.341 1.341 0 00-.981-1.836 1.354 1.354 0 00-1.387.571 1.342 1.342 0 001.118 2.093zm-45.085 10.7L16.3 48.848l-1.463-1.387a1.329 1.329 0 00-2.242.99 1.323 1.323 0 00.412.926l2.376 2.267a1.333 1.333 0 001.827 0l6.494-6.155a1.324 1.324 0 00.325-1.433 1.32 1.32 0 00-1.204-.849 1.333 1.333 0 00-.949.363z" fill="#FFCC80"/><path d="M56.438 47.832a1.32 1.32 0 001.326 1.322h5.459a1.329 1.329 0 001.326-1.322c0-.351-.14-.687-.388-.935a1.329 1.329 0 00-.938-.388h-5.459a1.329 1.329 0 00-1.327 1.323zm-23.68 1.322h16.819a1.32 1.32 0 100-2.645h-16.82c-.351 0-.688.14-.937.388a1.32 1.32 0 00.938 2.257z" fill="#3C4852"/><path d="M21.875 58.418L16.3 63.696l-1.463-1.386a1.335 1.335 0 00-2.253.989c.008.352.155.686.41.93l2.377 2.267a1.333 1.333 0 001.828 0l6.504-6.159a1.324 1.324 0 00.326-1.433 1.324 1.324 0 00-1.204-.849 1.334 1.334 0 00-.949.363z" fill="#FFCC80"/><path d="M32.758 64.002h30.465a1.329 1.329 0 001.326-1.322c0-.35-.14-.687-.388-.935a1.329 1.329 0 00-.938-.387H32.758a1.32 1.32 0 100 2.645z" fill="#3C4852"/><path d="M21.875 73.266L16.3 78.544l-1.463-1.386a1.327 1.327 0 00-1.453-.252 1.326 1.326 0 00-.789 1.242 1.323 1.323 0 00.412.925l2.376 2.267a1.333 1.333 0 001.827 0l6.494-6.154a1.324 1.324 0 00.325-1.434 1.32 1.32 0 00-1.204-.849 1.333 1.333 0 00-.949.363z" fill="#FFCC80"/><path d="M64.55 77.528a1.329 1.329 0 00-1.327-1.322H46.165a1.329 1.329 0 00-1.327 1.322 1.329 1.329 0 001.327 1.322h17.058a1.329 1.329 0 001.326-1.322zm-26.857-1.322h-4.927a1.32 1.32 0 100 2.645h4.927a1.329 1.329 0 001.327-1.323 1.329 1.329 0 00-1.327-1.322zM13.847 15.634a1.323 1.323 0 00-1.896 0l-3.233 3.257a1.327 1.327 0 00.932 2.274c.353.001.693-.137.944-.385l3.26-3.25a1.319 1.319 0 00-.007-1.896z" fill="#3C4852"/><path d="M47.947 32.889a1.33 1.33 0 001.368-1.277c.098-1.612.329-3.213.69-4.787h5.307a1.32 1.32 0 100-2.645H50.71a24.44 24.44 0 012.4-5.402 1.836 1.836 0 011.65-.89 1.843 1.843 0 011.575 1.018 35.583 35.583 0 013.366 12.785 1.321 1.321 0 001.327 1.198h.11a1.332 1.332 0 001.217-1.424 38.252 38.252 0 00-3.632-13.738 4.475 4.475 0 00-1.572-1.777 4.495 4.495 0 00-6.3 1.437c-3.89 6.385-4.17 13.828-4.17 14.142-.01.346.118.683.354.937.237.255.564.406.912.423z" fill="#FFCC80"/></svg>