<svg width="26" height="26" fill="none" xmlns="http://www.w3.org/2000/svg"><path d="M12.954 26c3.459 0 6.716-1.332 9.173-3.75A12.892 12.892 0 0026 13.127c.034-3.51-1.3-6.81-3.758-9.291C19.791 1.362 16.509 0 13 0 9.516 0 6.239 1.371 3.773 3.861 1.308 6.35-.031 9.637 0 13.121v11.472a1.406 1.406 0 002.354 1.038s1.306-1.39 3.042-1.39c.592 0 1.186.133 1.738.41C8.92 25.546 10.874 26 12.941 26h.013zm-7.556-4.57c-.885 0-1.765.175-2.587.516V13.1A10.114 10.114 0 015.77 5.84 10.111 10.111 0 0113 2.81c2.753 0 5.326 1.067 7.244 3.004a10.138 10.138 0 012.945 7.286c-.054 5.565-4.654 10.09-10.247 10.09-1.627 0-3.158-.354-4.548-1.051a6.675 6.675 0 00-2.996-.71z" fill="#FFCC80"/><path d="M20.238 13.07a1.757 1.757 0 11-3.514 0 1.757 1.757 0 013.514 0zm-5.552 0a1.757 1.757 0 11-3.513 0 1.757 1.757 0 013.513 0zm-5.55 0a1.757 1.757 0 11-3.514 0 1.757 1.757 0 013.513 0z" fill="#FFCC80"/></svg>