<svg width="97" height="96" fill="none" xmlns="http://www.w3.org/2000/svg"><path d="M40.652 67.113c-.458-.157-.925-.32-1.391-.49v-7.511c1.098.306 1.732.83 1.779.87a1.955 1.955 0 002.704-.112 1.818 1.818 0 00-.11-2.625c-.1-.09-1.72-1.5-4.373-1.936v-1.451c0-1.026-.859-1.858-1.918-1.858s-1.917.832-1.917 1.858v1.588c-.211.048-.424.1-.64.164-2.534.74-4.427 2.838-4.94 5.477-.47 2.411.333 4.74 2.093 6.078.892.678 1.993 1.299 3.487 1.95v9.674c-1.238-.113-2.075-.442-3.458-1.319-.886-.561-2.075-.321-2.655.538-.58.858-.331 2.01.555 2.572 2.17 1.375 3.672 1.813 5.558 1.936v1.626c0 1.026.858 1.858 1.917 1.858 1.06 0 1.918-.832 1.918-1.858V82.35c3.714-.806 6.099-3.832 6.617-6.817.66-3.802-1.392-7.107-5.226-8.42zm-6.347-2.871c-.62-.471-.89-1.44-.69-2.467.17-.877.734-1.917 1.81-2.429v5.612a9.494 9.494 0 01-1.12-.716zm7.79 10.675c-.242 1.395-1.204 2.873-2.834 3.549v-7.889l.112.039c3.038 1.04 2.852 3.555 2.723 4.301z" fill="#3C4852"/><path d="M97 41c0-14.445-11.874-26.198-26.469-26.198a26.528 26.528 0 00-19.851 8.89c.978-1.42 2.546-3.674 5.06-7.261 1.578-2.25 1.55-5.138-.072-7.357-1.62-2.219-4.382-3.15-7.035-2.372a2.644 2.644 0 01-2.822-.886l-2.395-3.003A7.457 7.457 0 0037.553 0a7.457 7.457 0 00-5.864 2.813l-2.395 3.003a2.644 2.644 0 01-2.822.886c-2.652-.777-5.414.153-7.036 2.373-1.621 2.219-1.65 5.106-.072 7.356 3.782 5.395 5.426 7.781 6.136 8.834a6.294 6.294 0 00-.756 5.713L7.764 48.703C2.759 53.931 0 60.777 0 67.981 0 83.431 12.698 96 28.307 96h18.491c15.608 0 28.307-12.57 28.307-28.019 0-.389-.01-.779-.027-1.17C87.514 64.672 97 53.914 97 41.002zM43.763 26.233c1.463 0 2.652 1.178 2.652 2.625 0 1.448-1.19 2.626-2.652 2.626H30.818c-1.463 0-2.653-1.178-2.653-2.626 0-1.447 1.19-2.625 2.653-2.625h12.945zm-21.256-14.96c.257-.352 1.225-1.462 2.889-.974a6.435 6.435 0 006.872-2.158l2.395-3.003a3.675 3.675 0 012.89-1.386c1.133 0 2.187.505 2.889 1.386l2.395 3.003a6.436 6.436 0 006.872 2.158c1.664-.488 2.632.622 2.89.974.256.352 1.018 1.61.029 3.02-3.629 5.177-5.312 7.615-6.114 8.802a6.442 6.442 0 00-2.368-.6l2.365-6.608-6.201 6.596h-1.253L37.48 14.51l-1.577 7.972H34.65l-6.201-6.596 2.36 6.596a6.463 6.463 0 00-2.336.439c-.844-1.246-2.536-3.693-5.996-8.628-.99-1.411-.227-2.669.03-3.02zm48.809 56.709c0 13.382-10.999 24.269-24.518 24.269H28.307c-13.52 0-24.518-10.887-24.518-24.269 0-6.24 2.389-12.17 6.726-16.698l16.533-17.26a6.446 6.446 0 001.664.858l-4.823 13.477 10.665-13.125h.676l2.323 11.74 2.322-11.74h.152l4.049 4.983c-.008.261-.013.523-.013.785 0 14.446 11.874 26.2 26.468 26.2.258 0 .514-.005.77-.013.009.265.015.53.015.793zm-.785-4.532c-12.505 0-22.679-10.07-22.679-22.448s10.174-22.449 22.68-22.449c12.505 0 22.679 10.07 22.679 22.449 0 12.378-10.174 22.448-22.68 22.448z" fill="#3C4852"/><path d="M78.715 33.48h-.2v-2.137c0-4.6-3.595-8.343-8.015-8.343s-8.016 3.743-8.016 8.343v2.137h-.198C60.47 33.48 59 35.012 59 36.9v13.68c0 1.89 1.471 3.42 3.286 3.42h16.428C80.53 54 82 52.469 82 50.58V36.9c0-1.888-1.47-3.42-3.285-3.42zm-6.151 11.007v3.834h-4.08v-3.834a3.138 3.138 0 01-.928-2.24c0-1.705 1.329-3.088 2.968-3.088s2.967 1.383 2.967 3.089c0 .882-.357 1.676-.927 2.24zm-6.37-11.007v-2.137c0-2.471 1.932-4.482 4.306-4.482s4.306 2.01 4.306 4.482v2.137h-8.612z" fill="#FFCC80"/></svg>