<svg width="96" height="102" fill="none" xmlns="http://www.w3.org/2000/svg"><path d="M85.466 61.976a63.364 63.364 0 003.374-20.447V17.957c0-.968-.695-1.796-1.648-1.963l-.13-.022A117.723 117.723 0 0145.655.293a1.992 1.992 0 00-2.087.002A116.365 116.365 0 012.42 15.926l-.385.068a1.992 1.992 0 00-1.648 1.963v23.572c0 13.452 4.163 26.328 12.04 37.234 7.876 10.906 18.79 18.906 31.56 23.136a2.003 2.003 0 001.254-.001l.026-.008a63.679 63.679 0 0013.364-6.232C62.555 99.575 67.968 102 73.937 102c11.952 0 21.676-9.724 21.676-21.676 0-7.719-4.056-14.507-10.147-18.348zm-40.853 35.93A59.513 59.513 0 014.371 41.527V19.623a120.27 120.27 0 0040.245-15.3 121.636 121.636 0 0040.24 15.297v21.909a59.398 59.398 0 01-2.983 18.622 21.503 21.503 0 00-5.415-1.356 53.914 53.914 0 002.82-17.267V25.745c0-.922-.634-1.723-1.53-1.937A127.26 127.26 0 0145.59 11.325a1.992 1.992 0 00-1.935.002 125.895 125.895 0 01-32.173 12.492 1.992 1.992 0 00-1.533 1.939v15.77c0 10.882 3.217 21.375 9.303 30.347a53.783 53.783 0 0024.62 19.806 1.991 1.991 0 001.481 0 54.239 54.239 0 008.16-4.097 21.628 21.628 0 002.543 4.978 59.691 59.691 0 01-11.443 5.343zm7.648-17.582c0 1.085.081 2.152.236 3.195a50.219 50.219 0 01-7.884 4.16c-18.665-7.809-30.68-25.836-30.68-46.15V27.323a129.879 129.879 0 0030.693-11.982 131.25 131.25 0 0030.667 11.966V41.53c0 5.905-1.018 11.68-3.027 17.182-11.175.856-20.005 10.222-20.005 21.613zm21.676 17.692c-9.755 0-17.692-7.937-17.692-17.692 0-9.756 7.937-17.692 17.692-17.692 9.755 0 17.692 7.936 17.692 17.692 0 9.755-7.937 17.692-17.692 17.692z" fill="#3C4852"/><path d="M71.863 79.556l-4.154-4.154-4.919 4.919 9.073 9.072 13.22-13.22-4.918-4.92-8.302 8.303z" fill="#FFCC80"/></svg>