<svg width="36" height="36" fill="none" xmlns="http://www.w3.org/2000/svg"><path d="M36 18c0 9.941-8.059 18-18 18-9.94 0-18-8.059-18-18C0 8.06 8.06 0 18 0c9.941 0 18 8.06 18 18z" fill="#FFCC80"/><path d="M11.5 20c1.38 0 2.5-1.567 2.5-3.5S12.88 13 11.5 13 9 14.567 9 16.5s1.12 3.5 2.5 3.5zm16.957-2.203c-.06-.135-1.5-3.297-4.457-3.297s-4.397 3.162-4.457 3.297a.502.502 0 00.755.605c.012-.01 1.262-.902 3.702-.902 2.426 0 3.674.88 3.702.9a.498.498 0 00.755-.603zm-22.458-5.34a1 1 0 01-.799-1.6c3.262-4.35 7.616-4.4 7.8-4.4a1 1 0 01.004 2c-.156.003-3.569.087-6.205 3.6a.995.995 0 01-.8.4zM29 14.584a.998.998 0 01-.801-.4c-2.592-3.457-6.961-2.627-7.004-2.62a1 1 0 01-.393-1.961c.23-.047 5.657-1.072 8.996 3.38a.999.999 0 01-.798 1.6zm-5.747 8.994a.513.513 0 00-.597.06c-.01.008-1.013.863-4.657.863-3.641 0-4.646-.854-4.646-.854a.5.5 0 00-.838.475c.01.044 1.144 4.379 5.484 4.379s5.474-4.335 5.485-4.38a.496.496 0 00-.231-.543z" fill="#3C4852"/></svg>