<svg width="284" height="111" fill="none" xmlns="http://www.w3.org/2000/svg"><path d="M131.98 41.795c.33.6.39 1.125.18 1.575-.18.42-.63.63-1.35.63h-4.86c-1.23 0-2.115-.12-2.655-.36-.54-.24-.99-.75-1.35-1.53l-3.915-8.055c-.39-.81-.795-1.38-1.215-1.71-.42-.36-1.035-.54-1.845-.54h-.81V42.11c0 .69-.135 1.185-.405 1.485-.27.27-.765.405-1.485.405h-5.085c-.72 0-1.23-.135-1.53-.405-.27-.3-.405-.795-.405-1.485V13.94c0-.69.135-1.17.405-1.44.3-.3.81-.45 1.53-.45h5.085c.72 0 1.215.15 1.485.45.27.27.405.75.405 1.44v9.99h.99l6.48-10.215c.45-.72.87-1.17 1.26-1.35.42-.21 1.2-.315 2.34-.315h5.175c.69 0 1.125.18 1.305.54.21.36.135.84-.225 1.44l-8.19 13.05c1.05.75 1.965 1.905 2.745 3.465l5.94 11.25zm29.262-29.745c1.17 0 1.485.63.945 1.89l-11.88 28.395c-.3.69-.645 1.14-1.035 1.35-.39.21-1.08.315-2.07.315h-5.715c-1.2 0-1.515-.63-.945-1.89l3.375-7.56-9.54-20.61c-.6-1.26-.24-1.89 1.08-1.89h5.31c1.14 0 1.92.09 2.34.27.45.18.825.645 1.125 1.395l4.365 9.99 4.14-9.99c.27-.75.6-1.215.99-1.395.39-.18 1.11-.27 2.16-.27h5.355zm29.787 0c.69 0 1.17.15 1.44.45.3.27.45.75.45 1.44v28.17c0 .69-.15 1.185-.45 1.485-.27.27-.75.405-1.44.405h-5.13c-.69 0-1.185-.135-1.485-.405-.27-.3-.405-.795-.405-1.485V19.925h-8.505V42.11c0 .69-.135 1.185-.405 1.485-.27.27-.765.405-1.485.405h-5.085c-.72 0-1.23-.135-1.53-.405-.27-.3-.405-.795-.405-1.485V13.94c0-.69.135-1.17.405-1.44.3-.3.81-.45 1.53-.45h22.5zm33.461-.045c.72 0 1.215.15 1.485.45.3.27.45.765.45 1.485v28.17c0 .69-.15 1.185-.45 1.485-.27.27-.765.405-1.485.405h-5.04c-.72 0-1.23-.135-1.53-.405-.27-.3-.405-.81-.405-1.53v-9.54c.03-.57.075-1.14.135-1.71.06-.57.105-1.005.135-1.305.03-.33.105-.795.225-1.395.15-.63.255-1.08.315-1.35.09-.27.24-.825.45-1.665.21-.84.36-1.455.45-1.845h-.36c-.84 2.31-1.515 4.02-2.025 5.13-.48 1.11-1.215 2.49-2.205 4.14l-6.21 10.575c-.33.6-.945.9-1.845.9h-5.445c-.72 0-1.23-.135-1.53-.405-.27-.3-.405-.795-.405-1.485V13.94c0-.69.135-1.17.405-1.44.3-.3.81-.45 1.53-.45h5.085c.72 0 1.215.15 1.485.45.27.27.405.75.405 1.44v7.695c0 2.43-.105 4.29-.315 5.58-.18 1.29-.63 3.135-1.35 5.535h.315c1.62-4.11 3.06-7.23 4.32-9.36l6.12-10.485c.39-.6 1.02-.9 1.89-.9h5.4zM119.605 67.05c3.54 0 6.36.99 8.46 2.97 2.1 1.98 3.15 4.74 3.15 8.28 0 3.51-1.035 6.24-3.105 8.19-2.07 1.95-4.875 2.925-8.415 2.925h-5.535v7.695c0 .69-.135 1.185-.405 1.485-.27.27-.765.405-1.485.405h-5.085c-.72 0-1.23-.135-1.53-.405-.27-.3-.405-.795-.405-1.485V68.94c0-.69.135-1.17.405-1.44.3-.3.81-.45 1.53-.45h12.42zm-.99 14.49c1.05 0 1.875-.3 2.475-.9.6-.6.9-1.395.9-2.385 0-.99-.3-1.785-.9-2.385-.6-.63-1.425-.945-2.475-.945h-4.455v6.615h4.455zm43.244 15.615c.45 1.23.015 1.845-1.305 1.845h-4.86c-1.14 0-1.95-.135-2.43-.405-.45-.27-.765-.765-.945-1.485l-1.035-3.24h-9.72l-1.035 3.24c-.24.72-.585 1.215-1.035 1.485-.42.27-1.17.405-2.25.405h-4.725c-1.26 0-1.665-.615-1.215-1.845l10.35-28.53c.21-.63.48-1.05.81-1.26.33-.21.84-.315 1.53-.315h5.13c.66 0 1.155.105 1.485.315.36.21.645.6.855 1.17l10.395 28.62zM147.594 81.54c-.27-.9-.495-1.875-.675-2.925-.15-1.05-.24-1.875-.27-2.475l-.045-.9h-.45c.03 2.16-.255 4.245-.855 6.255l-1.665 5.31h5.625l-1.665-5.265zm40.297-14.535c.69 0 1.17.15 1.44.45.3.27.45.765.45 1.485v3.51c0 .72-.15 1.215-.45 1.485-.27.27-.75.405-1.44.405h-12.87v4.005h6.435c3.18 0 5.715.93 7.605 2.79 1.92 1.83 2.88 4.35 2.88 7.56 0 3.15-.96 5.655-2.88 7.515-1.89 1.86-4.425 2.79-7.605 2.79h-13.455c-.69 0-1.185-.135-1.485-.405-.27-.27-.405-.735-.405-1.395V68.94c0-.72.135-1.215.405-1.485.3-.3.81-.45 1.53-.45h19.845zm-5.04 21.645c0-1.98-1.095-2.97-3.285-2.97h-4.545v5.985h4.545c2.19 0 3.285-1.005 3.285-3.015zm13.123-9.675c0-3.93 1.2-7.005 3.6-9.225 2.43-2.25 5.85-3.375 10.26-3.375 4.38 0 7.77 1.125 10.17 3.375 2.43 2.22 3.645 5.295 3.645 9.225v8.1c0 3.93-1.215 7.02-3.645 9.27-2.4 2.22-5.79 3.33-10.17 3.33-4.41 0-7.83-1.11-10.26-3.33-2.4-2.25-3.6-5.34-3.6-9.27v-8.1zm18.765-.405c0-1.41-.435-2.475-1.305-3.195-.84-.75-2.04-1.125-3.6-1.125-1.59 0-2.82.375-3.69 1.125-.84.72-1.26 1.785-1.26 3.195v8.91c0 1.41.42 2.49 1.26 3.24.87.72 2.1 1.08 3.69 1.08 1.56 0 2.76-.36 3.6-1.08.87-.75 1.305-1.83 1.305-3.24v-8.91zm36.533-11.52c.72 0 1.215.15 1.485.45.3.27.45.75.45 1.44v4.05c0 .72-.15 1.23-.45 1.53-.27.27-.765.405-1.485.405h-6.66V97.11c0 .69-.15 1.185-.45 1.485-.27.27-.765.405-1.485.405h-5.085c-.72 0-1.215-.135-1.485-.405-.27-.3-.405-.795-.405-1.485V74.925h-6.705c-.72 0-1.215-.135-1.485-.405-.27-.3-.405-.81-.405-1.53v-4.05c0-.69.135-1.17.405-1.44.27-.3.765-.45 1.485-.45h22.275zm31.164 0c1.17 0 1.485.63.945 1.89l-11.88 28.395c-.3.69-.645 1.14-1.035 1.35-.39.21-1.08.315-2.07.315h-5.715c-1.2 0-1.515-.63-.945-1.89l3.375-7.56-9.54-20.61c-.6-1.26-.24-1.89 1.08-1.89h5.31c1.14 0 1.92.09 2.34.27.45.18.825.645 1.125 1.395l4.365 9.99 4.14-9.99c.27-.75.6-1.215.99-1.395.39-.18 1.11-.27 2.16-.27h5.355zM26.658 94.33h27.684c-7.577 8.373-13.85 13.328-13.85 13.328s-6.257-4.955-13.834-13.329zm-.798-70.748a10.695 10.695 0 00-5.487 1.524 10.352 10.352 0 00-3.861 4.1 10.045 10.045 0 00.893 10.682 10.47 10.47 0 004.492 3.433 10.74 10.74 0 005.667.636 10.62 10.62 0 005.172-2.35 10.239 10.239 0 003.15-4.643c-.003-.343-.189-8.777-10.026-13.382zm.042 14.586a4.533 4.533 0 01-2.475-.733 4.372 4.372 0 01-1.64-1.95 4.25 4.25 0 01-.253-2.512 4.316 4.316 0 011.219-2.226 4.488 4.488 0 012.28-1.19 4.553 4.553 0 012.573.247c.814.33 1.51.887 1.999 1.602a4.268 4.268 0 01-.554 5.489 4.51 4.51 0 01-3.15 1.273zm19.212-1.271a10.227 10.227 0 003.123 4.67 10.6 10.6 0 005.164 2.382c1.914.312 3.878.1 5.676-.614a10.462 10.462 0 004.506-3.428 10.052 10.052 0 00.906-10.702 10.346 10.346 0 00-3.868-4.105 10.676 10.676 0 00-5.494-1.518c-9.414 4.412-9.986 12.34-10.013 13.315zm9.998-7.418c.88 0 1.74.254 2.472.732a4.37 4.37 0 011.64 1.95c.337.795.426 1.67.254 2.513a4.318 4.318 0 01-1.218 2.227 4.483 4.483 0 01-2.278 1.19 4.546 4.546 0 01-2.571-.248 4.429 4.429 0 01-1.997-1.603 4.277 4.277 0 01-.748-2.416c0-1.151.468-2.255 1.3-3.07a4.502 4.502 0 013.14-1.275h.006z" fill="#fff"/><path d="M81 40.883c0 17.842-9.524 34.176-19.335 46.269H19.344C9.524 75.059 0 58.725 0 40.883a39.615 39.615 0 014.48-18.326 32.197 32.197 0 007.69 3.943 20.924 20.924 0 00-1.968 6.547C8.03 51 22.447 52.944 40.515 52.944c18.068 0 32.478-1.946 30.307-19.897a20.764 20.764 0 00-1.977-6.559 32.676 32.676 0 007.687-3.925A39.574 39.574 0 0181 40.883z" fill="#fff"/><path d="M4.115 78.95h72.773c1.09 0 2.137.431 2.908 1.2a4.094 4.094 0 010 5.8 4.111 4.111 0 01-2.908 1.202H4.115a4.127 4.127 0 01-2.91-1.202A4.103 4.103 0 010 83.05a4.09 4.09 0 011.205-2.9 4.11 4.11 0 012.91-1.2zM81 2.053c-2.987 2.933-5.958 3.97-9.18 3.97C64.069 6.023 54.866 0 40.506 0 26.145 0 16.94 6.023 9.178 6.023 5.96 6.023 2.99 4.99 0 2.053c0 10.2 6.559 17.752 20.348 20.347h-.039a27.18 27.18 0 015.673 1.971c9.84 4.754 10.026 13.459 10.029 13.813v.02l4.466 6.91 4.503-6.882v-.109c.033-1.007.6-9.189 10.026-13.743a27.303 27.303 0 015.667-1.968h-.024C74.444 19.812 81 12.258 81 2.053z" fill="#FFCC80"/></svg>